HIERARCHY
ROOT Hips
{
	OFFSET 0.000000 0.000000 0.000000 
	CHANNELS 6 Xposition Yposition Zposition Zrotation Yrotation Xrotation
	JOINT LeftUpLeg
	{
		OFFSET 1.363060 -1.794630 0.839290 
		CHANNELS 3 Zrotation Yrotation Xrotation
		JOINT LeftLeg
		{
			OFFSET 2.448110 -6.726130 0.000000 
			CHANNELS 3 Zrotation Yrotation Xrotation
			JOINT LeftFoot
			{
				OFFSET 2.562200 -7.039590 0.000000 
				CHANNELS 3 Zrotation Yrotation Xrotation
				JOINT LeftToeBase
				{
					OFFSET 0.157640 -0.433110 2.322550 
					CHANNELS 3 Zrotation Yrotation Xrotation
					End Site
					{
						OFFSET 0.000000 0.000000 0.000000 
					}
				}
			}
		}
	}
	JOINT RightUpLeg
	{
		OFFSET -1.305520 -1.794630 0.839290 
		CHANNELS 3 Zrotation Yrotation Xrotation
		JOINT RightLeg
		{
			OFFSET -2.542530 -6.985550 0.000000 
			CHANNELS 3 Zrotation Yrotation Xrotation
			JOINT RightFoot
			{
				OFFSET -2.568260 -7.056230 0.000000 
				CHANNELS 3 Zrotation Yrotation Xrotation
				JOINT RightToeBase
				{
					OFFSET -0.164730 -0.452590 2.363150 
					CHANNELS 3 Zrotation Yrotation Xrotation
					End Site
					{
						OFFSET 0.000000 0.000000 0.000000 
					}
				}
			}
		}
	}
	JOINT Spine
	{
		OFFSET 0.028270 2.035590 -0.193380 
		CHANNELS 3 Zrotation Yrotation Xrotation
		JOINT Spine1
		{
			OFFSET 0.056720 2.048850 -0.042750 
			CHANNELS 3 Zrotation Yrotation Xrotation
			JOINT Neck1
			{
				OFFSET -0.054170 1.746240 0.172020 
				CHANNELS 3 Zrotation Yrotation Xrotation
				JOINT Head
				{
					OFFSET 0.104070 1.761360 -0.123970 
					CHANNELS 3 Zrotation Yrotation Xrotation
					End Site
					{
						OFFSET 0.000000 0.000000 0.000000 
					}
				}
			}
			JOINT LeftArm
			{
				OFFSET 3.362410 1.200890 -0.311210 
				CHANNELS 3 Zrotation Yrotation Xrotation
				JOINT LeftForeArm
				{
					OFFSET 4.983000 -0.000000 -0.000000 
					CHANNELS 3 Zrotation Yrotation Xrotation
					JOINT LeftHand
					{
						OFFSET 3.483560 -0.000000 -0.000000 
						CHANNELS 3 Zrotation Yrotation Xrotation
						JOINT LeftHandIndex1
						{
							OFFSET 0.715260 -0.000000 -0.000000 
							CHANNELS 3 Zrotation Yrotation Xrotation
							End Site
							{
								OFFSET 0.000000 0.000000 0.000000 
							}
						}
					}
				}
			}
			JOINT RightArm
			{
				OFFSET -3.136600 1.374050 -0.404650 
				CHANNELS 3 Zrotation Yrotation Xrotation
				JOINT RightForeArm
				{
					OFFSET -5.241900 -0.000000 -0.000000 
					CHANNELS 3 Zrotation Yrotation Xrotation
					JOINT RightHand
					{
						OFFSET -3.444170 -0.000000 -0.000000 
						CHANNELS 3 Zrotation Yrotation Xrotation
						JOINT RightHandIndex1
						{
							OFFSET -0.622530 -0.000000 -0.000000 
							CHANNELS 3 Zrotation Yrotation Xrotation
							End Site
							{
								OFFSET 0.000000 0.000000 0.000000 
							}
						}
					}
				}
			}
		}
	}
}
MOTION
Frames: 12
Frame Time: 0.041667
11.678198 25.704523 9.531607 16.776006 -49.283039 20.681771 -21.170681 -17.803312 -42.141141 4.584679 18.854543 50.566038 3.942997 15.396105 13.880964 6.693800 -15.068500 -47.706500 26.704164 22.401963 -41.972960 0.106377 -13.075809 28.257763 -1.917476 -12.680282 9.918506 -3.844400 11.950400 -35.556700 1.876482 0.594656 -6.112738 7.169960 -0.276704 9.566943 12.895551 -2.665035 17.038163 2.701500 -0.483200 3.090900 -46.712670 20.165007 31.868438 130.843595 -52.934545 -96.723310 -2.550240 1.127739 -19.256238 -7.125000 0.000000 0.000000 92.648045 2.241537 59.950289 -54.929370 54.293586 -32.063853 -1.714535 2.362681 -11.218767 7.125000 0.000000 0.000000 
11.756166 25.705507 9.533684 17.978816 -53.189189 19.738570 -20.968223 -17.493965 -42.151402 4.503329 18.768670 50.253258 3.954317 15.190220 14.145429 6.667400 -15.045300 -47.605000 26.843100 21.948504 -42.030846 0.081633 -13.178582 28.593960 -1.919245 -13.306623 9.876037 -3.652600 11.683100 -34.620100 1.801590 1.060782 -6.066169 7.260153 -0.054660 9.596775 12.902358 -2.611308 16.997176 2.733300 -0.466000 3.071900 -45.853709 19.294985 31.291108 130.372416 -53.155095 -96.350941 -2.563066 1.135586 -19.221324 -7.125000 0.000000 0.000000 92.245578 2.285184 59.248881 -51.917132 53.233019 -29.601668 -1.747796 2.409312 -10.590629 7.125000 0.000000 0.000000 
11.843867 25.699930 9.521000 19.651168 -56.811305 18.294146 -20.867332 -17.309249 -42.393742 4.480516 18.770826 50.175960 3.948770 15.121200 14.133244 6.417700 -14.821300 -46.636100 26.694296 21.398502 -42.048890 0.094178 -13.262692 28.889030 -1.870850 -14.799201 9.368645 -3.027600 10.739600 -31.406600 1.760944 1.167158 -5.984264 7.373398 -0.026116 9.676698 12.796262 -2.417034 16.985910 2.718000 -0.371400 3.100800 -45.110229 19.026797 30.407485 130.211133 -53.251961 -96.190496 -2.558772 1.155622 -18.831500 -7.125000 0.000000 0.000000 92.071946 2.912121 58.970467 -48.851804 52.038098 -27.106636 -1.794325 2.500330 -9.666150 7.125000 0.000000 0.000000 
11.937582 25.682652 9.527779 21.350297 -60.112141 16.816624 -20.657587 -17.468877 -42.696976 4.445797 18.793711 50.098112 3.952935 15.178993 14.046275 5.986800 -14.415500 -44.928500 27.012150 20.243825 -42.135950 0.102145 -13.240461 28.957036 -1.926353 -15.504486 9.801137 -2.993800 10.685000 -31.224800 1.721395 1.052943 -5.797505 7.086583 -0.138716 10.304426 12.580291 -2.164081 17.027829 2.653500 -0.236800 3.208900 -44.222216 18.079710 28.925492 129.379588 -53.660057 -95.524114 -2.545821 1.157909 -18.674966 -7.125000 0.000000 0.000000 92.120036 4.213181 59.048152 -45.799208 50.755276 -24.670092 -1.719753 2.593156 -8.985823 7.125000 0.000000 0.000000 
12.032828 25.657392 9.543854 23.421294 -63.243405 14.879192 -20.566209 -17.752006 -42.811542 4.363094 18.770902 49.870930 3.963061 15.412637 13.832611 5.311700 -13.726400 -42.152400 27.304440 18.822352 -42.166515 0.080838 -13.220592 29.062016 -1.953606 -15.932034 10.086593 -2.859300 10.463700 -30.491800 1.650519 1.561107 -5.653384 7.141840 0.100521 10.625443 12.748392 -2.355550 16.964248 2.789900 -0.340200 3.294300 -43.698761 15.457978 28.158464 128.513611 -53.984518 -94.891846 -2.565809 1.179816 -18.580066 -7.125000 0.000000 0.000000 91.316163 4.584722 57.626086 -43.622942 49.715938 -23.017173 -1.702925 2.585612 -8.192248 7.125000 0.000000 0.000000 
12.123262 25.623820 9.558179 25.555123 -66.267893 12.911754 -20.317903 -17.835151 -43.110300 4.290561 18.743767 49.626740 3.965926 15.289603 13.885818 4.897100 -13.266900 -40.376100 27.402426 18.346803 -41.976946 0.114393 -13.151811 28.951893 -1.917975 -16.636102 9.845604 -2.965400 10.638800 -31.071200 1.631904 1.734399 -5.590340 7.121275 0.199205 10.673534 12.787549 -2.382729 16.914729 2.808900 -0.358600 3.290200 -42.989658 13.833228 27.780962 128.346134 -54.016617 -94.786893 -2.583919 1.131016 -19.061177 -7.125000 0.000000 0.000000 90.588501 4.765291 56.779475 -41.865779 48.812412 -21.668044 -1.700591 2.669178 -7.565271 7.125000 0.000000 0.000000 
12.211729 25.582266 9.573161 27.793785 -69.062608 10.949093 -19.911874 -17.957026 -43.689707 4.243827 18.724337 49.365293 3.943363 14.405488 14.414283 5.288200 -13.701200 -42.053400 27.709838 17.571909 -41.788096 0.210560 -12.925861 28.410275 -1.894468 -17.350317 9.641551 -2.999800 10.694700 -31.256900 1.680725 1.783238 -5.599154 7.240571 0.266293 10.539874 12.903029 -2.468503 16.855407 2.873500 -0.413400 3.249600 -42.381922 12.208620 27.667314 128.105735 -54.065522 -94.631394 -2.609484 1.119084 -19.287710 -7.125000 0.000000 0.000000 89.799380 4.767749 55.801134 -40.006704 47.784359 -20.257956 -1.683985 2.768829 -6.930382 7.125000 0.000000 0.000000 
12.299211 25.530652 9.587267 30.658743 -71.675845 8.421453 -19.658433 -17.979300 -44.451124 4.223719 18.695077 49.043357 3.853462 12.704231 15.322243 6.261200 -14.676800 -46.021200 27.984460 16.721229 -41.714746 0.319303 -12.691294 27.829273 -1.863989 -18.221977 9.409870 -3.057900 10.788200 -31.568800 1.695243 1.802834 -5.592275 7.230221 0.305861 10.518915 12.987439 -2.552604 16.854782 2.957000 -0.465400 3.269900 -41.675937 10.346445 27.409383 127.633762 -54.207499 -94.293972 -2.641099 1.129891 -19.395088 -7.125000 0.000000 0.000000 89.182481 4.860555 54.713062 -38.212314 46.747328 -18.943683 -1.547136 2.812583 -6.428686 7.125000 0.000000 0.000000 
12.381225 25.464056 9.600171 33.987581 -74.238768 5.383103 -19.380974 -17.758105 -45.179677 4.097967 18.596456 48.477811 3.826739 11.733909 16.066403 6.597400 -14.983300 -47.334700 28.444553 15.665745 -41.664082 0.403023 -12.463197 27.281298 -1.838293 -18.758275 9.229746 -3.231600 11.060900 -32.485600 1.624443 1.969170 -5.515174 6.929618 0.394878 10.719232 12.981972 -2.627511 16.886719 2.961100 -0.500800 3.331400 -40.831535 8.207030 26.857204 127.017507 -54.405702 -93.837616 -2.668847 1.160267 -19.401294 -7.125000 0.000000 0.000000 88.751750 5.077298 53.446118 -36.713322 45.858525 -17.921839 -1.323332 2.611914 -6.238375 7.125000 0.000000 0.000000 
12.462583 25.384557 9.618651 38.666325 -76.697140 0.988620 -19.180996 -17.684802 -45.720894 3.809152 18.389986 47.544145 3.925732 11.764632 16.572828 6.441300 -14.842700 -46.728000 28.951880 14.122269 -41.672865 0.454777 -12.196706 26.677506 -1.849151 -18.726648 9.264994 -3.505700 11.471800 -33.888200 1.559331 2.054038 -5.439600 6.700741 0.439701 10.887856 12.950273 -2.652217 16.904022 2.949400 -0.509600 3.396700 -40.171074 6.252241 26.379037 126.577537 -54.521197 -93.547205 -2.654304 1.157020 -19.418758 -7.125000 0.000000 0.000000 88.148334 5.305772 52.593199 -35.366603 44.990427 -16.892542 -1.472610 2.867173 -6.492090 7.125000 0.000000 0.000000 
12.546566 25.297622 9.645443 45.598080 -78.767377 -5.476687 -19.178192 -17.871683 -46.378572 3.514483 18.155113 46.486523 3.978810 11.389170 17.120977 6.600200 -14.985700 -47.345300 28.062553 14.300545 -41.512275 0.670392 -12.010225 25.969130 -1.326566 -21.780782 6.053444 -2.136800 9.145500 -26.251400 1.651829 1.733330 -5.453317 7.062983 0.283862 10.833220 12.956918 -2.619747 16.896741 2.976100 -0.500100 3.401700 -40.208035 4.912204 26.182525 126.299748 -54.576968 -93.392198 -2.642415 1.132106 -19.153075 -7.125000 0.000000 0.000000 87.109953 5.467101 52.146860 -33.979804 44.037611 -15.877033 -1.395365 3.127351 -6.959202 7.125000 0.000000 0.000000 
12.630986 25.199970 9.669500 54.035557 -80.562658 -13.373122 -18.932764 -18.084166 -47.224631 3.198317 17.923383 45.407394 4.045141 11.406641 17.275784 6.555000 -14.945400 -47.170600 28.253761 13.319822 -41.915460 0.735849 -11.849161 25.506405 -1.343709 -21.973960 6.124201 -2.711100 10.212000 -29.666000 1.747162 1.399583 -5.493605 7.378495 0.131178 10.725878 13.034677 -2.572023 16.852613 3.094800 -0.497600 3.365800 -40.234261 3.550012 26.237226 126.168980 -54.574885 -93.339853 -2.667603 1.098525 -18.376801 -7.125000 0.000000 0.000000 85.543579 5.215770 52.028575 -33.411070 43.581763 -15.403874 -2.073853 3.103150 -7.774431 7.125000 0.000000 0.000000 
